PathFileType	4	(X/Y/Z)	 0.11m3min.trc
DataRate	CameraRate	NumFrames	NumMarkers	Units	OrigDataRate	OrigDataStartFrame	OrigNumFrames
200	200	9	34	m	200	751	1000
Frame#	Time	LSH			RSH			MAN			RASI			LASI			HIPR			HIPL			RPSI			LPSI			COX			RTHI1			RTHI2			RTHI3			RTHI4			RSHA1			RSHA2			RSHA3			RSHA4			RHEEL			RMET5			RMET1			RTOE			LTHI1			LTHI2			LTHI3			LTHI4			LSHA1			LSHA2			LSHA3			LSHA4			LHEEL			LMET5			LMET1			LTOE			
		X1	Y1	Z1	X2	Y2	Z2	X3	Y3	Z3	X4	Y4	Z4	X5	Y5	Z5	X6	Y6	Z6	X7	Y7	Z7	X8	Y8	Z8	X9	Y9	Z9	X10	Y10	Z10	X11	Y11	Z11	X12	Y12	Z12	X13	Y13	Z13	X14	Y14	Z14	X15	Y15	Z15	X16	Y16	Z16	X17	Y17	Z17	X18	Y18	Z18	X19	Y19	Z19	X20	Y20	Z20	X21	Y21	Z21	X22	Y22	Z22	X23	Y23	Z23	X24	Y24	Z24	X25	Y25	Z25	X26	Y26	Z26	X27	Y27	Z27	X28	Y28	Z28	X29	Y29	Z29	X30	Y30	Z30	X31	Y31	Z31	X32	Y32	Z32	X33	Y33	Z33	X34	Y34	Z34	
751	3.7550	-0.242207	1.505067	-0.693762	-0.256239	1.508564	-0.365365	-0.191608	1.468915	-0.527831	-0.156218	1.058724	-0.405836	-0.154750	1.062672	-0.631793	-0.206771	1.111197	-0.380702	-0.208149	1.111421	-0.657601	-0.310111	1.097412	-0.460066	-0.311169	1.101110	-0.572949	-0.315733	1.101678	-0.516649	-0.263235	0.849172	-0.358721	-0.242992	0.792954	-0.354256	-0.182686	0.811250	-0.340199	-0.194994	0.871479	-0.342837	-0.282529	0.420522	-0.363777	-0.290037	0.379160	-0.373236	-0.229694	0.374153	-0.366587	-0.225723	0.414146	-0.362218	-0.330162	0.194753	-0.429283	-0.228731	0.070307	-0.373643	-0.199146	0.071619	-0.433081	-0.181235	0.055400	-0.424138	-0.242383	0.873068	-0.693902	-0.224328	0.813866	-0.695793	-0.160474	0.827880	-0.696258	-0.171226	0.886619	-0.694868	-0.277624	0.435209	-0.687415	-0.289346	0.396513	-0.684346	-0.227510	0.384535	-0.685888	-0.223903	0.428455	-0.688981	-0.343816	0.189293	-0.634026	-0.233291	0.087351	-0.695242	-0.197143	0.078380	-0.635413	-0.179642	0.063846	-0.643597	
752	3.7600	-0.242168	1.506287	-0.693812	-0.255890	1.509881	-0.365173	-0.191659	1.470315	-0.527796	-0.156031	1.060189	-0.405717	-0.154786	1.063994	-0.631844	-0.206772	1.112515	-0.380587	-0.208345	1.112590	-0.657646	-0.310080	1.098772	-0.460025	-0.311215	1.102368	-0.572953	-0.315774	1.103037	-0.516601	-0.263104	0.850724	-0.358627	-0.242918	0.794474	-0.354305	-0.182547	0.812669	-0.340422	-0.194794	0.872925	-0.342899	-0.282163	0.421866	-0.363647	-0.289712	0.380520	-0.373053	-0.229314	0.375501	-0.366766	-0.225305	0.415459	-0.362350	-0.330205	0.195286	-0.429936	-0.226894	0.073237	-0.372274	-0.196981	0.074240	-0.431593	-0.178780	0.058281	-0.422374	-0.242076	0.874042	-0.694041	-0.223944	0.814872	-0.695766	-0.160111	0.828953	-0.695925	-0.170927	0.887674	-0.694682	-0.277176	0.436805	-0.687360	-0.289025	0.398145	-0.684304	-0.227212	0.386007	-0.685581	-0.223475	0.429913	-0.688702	-0.344353	0.190221	-0.633750	-0.232413	0.090343	-0.695741	-0.196116	0.081013	-0.636034	-0.178422	0.066534	-0.644328	
753	3.7650	-0.242043	1.507221	-0.693876	-0.255523	1.510869	-0.364946	-0.191741	1.471460	-0.527750	-0.155862	1.061413	-0.405606	-0.154853	1.065088	-0.631900	-0.206776	1.113566	-0.380481	-0.208585	1.113515	-0.657685	-0.310097	1.099800	-0.459968	-0.311334	1.103296	-0.572930	-0.315872	1.104065	-0.516526	-0.262938	0.852009	-0.358563	-0.242770	0.795744	-0.354368	-0.182350	0.813888	-0.340663	-0.194577	0.874152	-0.343000	-0.281831	0.423039	-0.363578	-0.289415	0.381680	-0.372838	-0.228968	0.376639	-0.366931	-0.224921	0.416547	-0.362497	-0.330348	0.195638	-0.430478	-0.225076	0.076022	-0.371060	-0.194928	0.076742	-0.430286	-0.176463	0.061017	-0.420809	-0.241685	0.874796	-0.694223	-0.223450	0.815666	-0.695746	-0.159649	0.829834	-0.695499	-0.170549	0.888541	-0.694421	-0.276765	0.438188	-0.687267	-0.288738	0.399578	-0.684214	-0.226955	0.387264	-0.685289	-0.223080	0.431163	-0.688438	-0.344955	0.190999	-0.633533	-0.231668	0.093044	-0.696093	-0.195284	0.083422	-0.636455	-0.177397	0.068982	-0.644826	
754	3.7700	-0.241888	1.507867	-0.693934	-0.255144	1.511535	-0.364691	-0.191876	1.472337	-0.527683	-0.155715	1.062402	-0.405508	-0.154947	1.065966	-0.631960	-0.206788	1.114358	-0.380382	-0.208860	1.114211	-0.657714	-0.310158	1.100514	-0.459896	-0.311517	1.103914	-0.572884	-0.316016	1.104780	-0.516432	-0.262729	0.853023	-0.358515	-0.242541	0.796748	-0.354429	-0.182081	0.814903	-0.340916	-0.194326	0.875167	-0.343142	-0.281517	0.424031	-0.363515	-0.289145	0.382630	-0.372666	-0.228670	0.377549	-0.367083	-0.224577	0.417431	-0.362617	-0.330561	0.195827	-0.430869	-0.223309	0.078588	-0.370043	-0.193041	0.079062	-0.429188	-0.174322	0.063553	-0.419487	-0.241217	0.875332	-0.694437	-0.222850	0.816258	-0.695727	-0.159094	0.830539	-0.694986	-0.170095	0.889232	-0.694099	-0.276386	0.439354	-0.687137	-0.288481	0.400803	-0.684083	-0.226731	0.388305	-0.685013	-0.222719	0.432198	-0.688193	-0.345612	0.191645	-0.633395	-0.231064	0.095412	-0.696296	-0.194648	0.085567	-0.636677	-0.176583	0.071144	-0.645092	
755	3.7750	-0.241733	1.508238	-0.693976	-0.254766	1.511889	-0.364414	-0.192103	1.472939	-0.527585	-0.155583	1.063152	-0.405432	-0.155067	1.066633	-0.632026	-0.206795	1.114908	-0.380298	-0.209170	1.114689	-0.657729	-0.310258	1.100925	-0.459807	-0.311756	1.104229	-0.572817	-0.316196	1.105191	-0.516324	-0.262461	0.853776	-0.358486	-0.242219	0.797508	-0.354491	-0.181732	0.815699	-0.341171	-0.194031	0.875958	-0.343323	-0.281226	0.424846	-0.363470	-0.288884	0.383395	-0.372545	-0.228423	0.378259	-0.367211	-0.224288	0.418120	-0.362712	-0.330837	0.195871	-0.431096	-0.221666	0.080866	-0.369211	-0.191362	0.081131	-0.428323	-0.172391	0.065831	-0.418454	-0.240661	0.875681	-0.694674	-0.222144	0.816663	-0.695705	-0.158444	0.831072	-0.694392	-0.169562	0.889754	-0.693716	-0.276033	0.440308	-0.686985	-0.288250	0.401823	-0.683917	-0.226532	0.389112	-0.684745	-0.222386	0.433020	-0.687971	-0.346300	0.192167	-0.633327	-0.230603	0.097410	-0.696346	-0.194213	0.087417	-0.636705	-0.175984	0.072985	-0.645125	
756	3.7800	-0.241589	1.508334	-0.693995	-0.254400	1.511944	-0.364121	-0.192447	1.473255	-0.527450	-0.155470	1.063671	-0.405382	-0.155211	1.067098	-0.632097	-0.206787	1.115226	-0.380231	-0.209516	1.114960	-0.657728	-0.310392	1.101049	-0.459700	-0.312055	1.104258	-0.572717	-0.316397	1.105303	-0.516189	-0.262127	0.854264	-0.358463	-0.241808	0.798007	-0.354531	-0.181295	0.816284	-0.341430	-0.193673	0.876525	-0.343541	-0.280973	0.425474	-0.363493	-0.288649	0.383962	-0.372491	-0.228229	0.378767	-0.367301	-0.224044	0.418638	-0.362801	-0.331175	0.195797	-0.431156	-0.220199	0.082782	-0.368562	-0.189927	0.082926	-0.427703	-0.170708	0.067799	-0.417740	-0.240015	0.875850	-0.694921	-0.221334	0.816886	-0.695670	-0.157702	0.831442	-0.693724	-0.168950	0.890116	-0.693281	-0.275694	0.441059	-0.686825	-0.288037	0.402627	-0.683735	-0.226351	0.389699	-0.684491	-0.222072	0.433622	-0.687762	-0.347004	0.192574	-0.633331	-0.230284	0.099010	-0.696248	-0.193976	0.088949	-0.636547	-0.175603	0.074487	-0.644929	
757	3.7850	-0.241497	1.508165	-0.693982	-0.254056	1.511739	-0.363823	-0.192619	1.473304	-0.527330	-0.155378	1.063964	-0.405358	-0.155375	1.067370	-0.632176	-0.206767	1.115323	-0.380183	-0.209892	1.115039	-0.657713	-0.310556	1.100898	-0.459582	-0.312386	1.104016	-0.572605	-0.316629	1.105136	-0.516053	-0.261723	0.854489	-0.358424	-0.241306	0.798254	-0.354541	-0.180769	0.816656	-0.341694	-0.193248	0.876862	-0.343786	-0.280732	0.425893	-0.363564	-0.288445	0.384357	-0.372520	-0.228064	0.379082	-0.367331	-0.223828	0.418977	-0.362889	-0.331551	0.195602	-0.431013	-0.218932	0.084284	-0.368092	-0.188755	0.084382	-0.427350	-0.169302	0.069403	-0.417368	-0.239280	0.875841	-0.695171	-0.220424	0.816936	-0.695613	-0.156872	0.831657	-0.692988	-0.168259	0.890316	-0.692797	-0.275361	0.441605	-0.686668	-0.287828	0.403218	-0.683549	-0.226186	0.390064	-0.684250	-0.221762	0.434009	-0.687558	-0.347721	0.192862	-0.633398	-0.230103	0.100196	-0.696004	-0.193935	0.090139	-0.636204	-0.175440	0.075627	-0.644507	
758	3.7900	-0.241482	1.507743	-0.693935	-0.253740	1.511283	-0.363520	-0.192671	1.473088	-0.527213	-0.155304	1.064029	-0.405357	-0.155559	1.067452	-0.632264	-0.206753	1.115201	-0.380151	-0.210296	1.114926	-0.657684	-0.310747	1.100474	-0.459462	-0.312737	1.103506	-0.572488	-0.316882	1.104694	-0.515917	-0.261245	0.854456	-0.358365	-0.240706	0.798260	-0.354521	-0.180146	0.816793	-0.341964	-0.192742	0.876969	-0.344021	-0.280499	0.426116	-0.363620	-0.288279	0.384586	-0.372627	-0.227929	0.379199	-0.367310	-0.223620	0.419118	-0.362918	-0.331968	0.195313	-0.430679	-0.217885	0.085342	-0.367809	-0.187941	0.085446	-0.427226	-0.168201	0.070623	-0.417325	-0.238459	0.875659	-0.695414	-0.219421	0.816823	-0.695541	-0.155960	0.831718	-0.692190	-0.167498	0.890353	-0.692276	-0.275018	0.441947	-0.686514	-0.287620	0.403598	-0.683373	-0.226019	0.390225	-0.684014	-0.221448	0.434174	-0.687357	-0.348452	0.193044	-0.633556	-0.230052	0.100968	-0.695621	-0.194079	0.090977	-0.635681	-0.175488	0.076394	-0.643871	
759	3.7950	-0.241464	1.507077	-0.693866	-0.253454	1.510584	-0.363213	-0.192629	1.472610	-0.527096	-0.155249	1.063863	-0.405380	-0.155757	1.067342	-0.632358	-0.206738	1.114867	-0.380141	-0.210722	1.114622	-0.657643	-0.310961	1.099787	-0.459343	-0.313100	1.102737	-0.572363	-0.317159	1.103973	-0.515783	-0.260684	0.854173	-0.358286	-0.240015	0.798034	-0.354479	-0.179431	0.816695	-0.342242	-0.192153	0.876840	-0.344238	-0.280277	0.426151	-0.363658	-0.288131	0.384630	-0.372749	-0.227807	0.379125	-0.367243	-0.223407	0.419054	-0.362911	-0.332425	0.194945	-0.430172	-0.217073	0.085946	-0.367708	-0.187467	0.086118	-0.427323	-0.167438	0.071410	-0.417592	-0.237552	0.875308	-0.695647	-0.218336	0.816550	-0.695454	-0.154971	0.831621	-0.691344	-0.166671	0.890219	-0.691717	-0.274656	0.442082	-0.686372	-0.287400	0.403771	-0.683219	-0.225845	0.390172	-0.683781	-0.221120	0.434118	-0.687152	-0.349178	0.193094	-0.633760	-0.230127	0.101324	-0.695109	-0.194408	0.091465	-0.634985	-0.175738	0.076794	-0.643030	
